<svg version="1.1" 
width="373" height="45.70719810301213" viewBox="0 0 374.51580364623885 45.892943780073544" >
	<g transform="matrix(0.07379142311198295,0,0,0.07379142311198295,-0.1475828462239659,6.852006826493787)" fill="#111111"><g xmlns="http://www.w3.org/2000/svg"><path d="M507.5,402.4l-84.8-93.1c-5.3-5.3-14.3-1.5-14.3,5.9v186.4c0,7.5,9.1,11.2,14.3,5.9l84.8-93.3   C510.8,411,510.8,405.7,507.5,402.4z"></path><path d="M459.5,183.8c2.2,13.8,15.2,23.3,29.1,21c13.9-2.2,23.3-15.3,21-29.1C490.6,57.6,387.9,10.6,336.2,2.3   c-7.3-1.1-14.9,0.9-20.5,5.7c-5.7,4.8-8.9,11.9-8.9,19.3v319.4c-18.1-9.2-39.8-14.6-63.5-14.6c-64.1,0-114.3,39.1-114.3,88.9   c0,49.8,50.2,88.9,114.3,88.9c64.1,0,114.3-39.1,114.3-88.9V61.3C392.5,75.1,447.4,108.5,459.5,183.8z"></path><path d="M27.4,78.2h203.2c14,0,25.4-11.4,25.4-25.4c0-14-11.4-25.4-25.4-25.4H27.4C13.4,27.4,2,38.8,2,52.8   C2,66.8,13.4,78.2,27.4,78.2z"></path><path d="M27.4,179.8h203.2c14,0,25.4-11.4,25.4-25.4c0-14-11.4-25.4-25.4-25.4H27.4C13.4,129,2,140.4,2,154.4   C2,168.4,13.4,179.8,27.4,179.8z"></path><path d="M256,256c0-14-11.4-25.4-25.4-25.4H27.4C13.4,230.6,2,242,2,256c0,14,11.4,25.4,25.4,25.4h203.2   C244.6,281.4,256,270,256,256z"></path></g></g><g transform="matrix(2.8198024252461313,0,0,2.8198024252461313,56.850786042263074,-11.053840663097091)" fill="#111111"><path d="M9.2773 20 l-3.6719 -6.2109 l-0.84961 0 l0 6.2109 l-2.9297 0 l0 -14.111 l5.1172 0 c3.1934 0 4.541 1.8848 4.541 4.2188 c0 1.8945 -1.0742 3.125 -2.9883 3.5352 l4.248 6.3574 l-3.4668 0 z M4.7559 8.32 l0 3.3691 l1.7285 0 c1.5625 0 2.1973 -0.66406 2.1973 -1.6797 c0 -1.0059 -0.63477 -1.6895 -2.1973 -1.6895 l-1.7285 0 z M22.455170084635416 8.467 l-5.2344 0 l0 3.2031 l4.6387 0 l0 2.5488 l-4.6387 0 l0 3.1934 l5.2344 0 l0 2.5879 l-8.1836 0 l0 -14.111 l8.1836 0 l0 2.5781 z M26.120805794270833 13.7988 c-0.86914 0 -1.6016 -0.73242 -1.6016 -1.6211 c0 -0.86914 0.73242 -1.6016 1.6016 -1.6016 c0.88867 0 1.6211 0.73242 1.6211 1.6016 c0 0.88867 -0.73242 1.6211 -1.6211 1.6211 z M26.120805794270833 20.19531 c-0.86914 0 -1.6016 -0.72266 -1.6016 -1.6016 s0.73242 -1.6211 1.6016 -1.6211 c0.88867 0 1.6211 0.74219 1.6211 1.6211 s-0.73242 1.6016 -1.6211 1.6016 z M36.32963837890625 5.888999999999999 c2.7637 0 4.4824 2.0508 4.4824 4.5605 c0 2.5684 -1.7188 4.4922 -4.4824 4.4922 l-2.9395 0 l0 5.0586 l-2.9297 0 l0 -14.111 l5.8691 0 z M35.84133837890625 12.4902 c1.4648 0 2.1484 -0.81055 2.1484 -2.0801 c0 -1.2207 -0.68359 -2.0703 -2.1484 -2.0703 l-2.4512 0 l0 4.1504 l2.4512 0 z M45.58150221354166 17.4121 l4.4238 0 l0 2.5879 l-7.3535 0 l0 -14.111 l2.9297 0 l0 11.523 z M61.064209798177075 20 l-1.0254 -2.9102 l-5.9277 0 l-1.0254 2.9102 l-2.998 0 l5.1953 -14.111 l3.584 0 l5.1953 14.111 l-2.998 0 z M54.97000979817708 14.6387 l4.209 0 l-2.0996 -5.9863 z M76.14552050781249 5.888999999999999 l-4.6387 7.3535 l0 6.7578 l-2.9395 0 l0 -6.6895 l-4.668 -7.4219 l3.2422 0 l2.8809 4.8047 l2.8906 -4.8047 l3.2324 0 z M80.4365437174479 17.4121 l4.4238 0 l0 2.5879 l-7.3535 0 l0 -14.111 l2.9297 0 l0 11.523 z M86.47545130208333 20 l0 -14.111 l2.9297 0 l0 14.111 l-2.9297 0 z M97.11398076171875 20.19531 c-3.0273 0 -5.3906 -1.4551 -5.8203 -4.1016 l3.0273 -0.69336 c0.19531 1.582 1.3574 2.4023 2.9102 2.4023 c1.1914 0 2.1387 -0.52734 2.1289 -1.7188 c-0.0097656 -1.3281 -1.5723 -1.748 -3.291 -2.2754 c-2.0703 -0.64453 -4.2871 -1.4063 -4.2871 -4.0039 c0 -2.627 2.1484 -4.1113 4.9805 -4.1113 c2.4805 0 4.9805 1.0059 5.5469 3.7109 l-2.832 0.70313 c-0.26367 -1.4063 -1.2109 -2.0215 -2.5391 -2.0215 c-1.1816 0 -2.1875 0.48828 -2.1875 1.6504 c0 1.084 1.3867 1.4453 2.9883 1.9238 c2.1289 0.64453 4.6484 1.4648 4.6484 4.2773 c0 2.998 -2.5098 4.2578 -5.2734 4.2578 z M112.65506022135418 5.888999999999999 l0 2.5781 l-3.3496 0 l0 11.533 l-2.9004 0 l0 -11.533 l-3.3691 0 l0 -2.5781 l9.6191 0 z"></path></g>
</svg>